<svg width="82" height="82" viewBox="0 0 82 82" fill="none" xmlns="http://www.w3.org/2000/svg">
<circle cx="41" cy="41" r="41" fill="#FF2442"/>
<path d="M53.3659 59.4215C56.5125 59.4215 59.0638 56.8708 59.0638 53.7242C59.0638 50.5732 56.5085 48.0264 53.3659 48.0264C50.2189 48.0264 47.6681 50.5772 47.6681 53.7242C47.6681 56.8623 50.2109 59.4215 53.3659 59.4215ZM49.6281 53.7292C48.9137 52.5937 50.642 51.5063 51.3564 52.6413L52.3807 54.2679L55.4792 50.8118C56.3726 49.8132 57.893 51.1734 56.9996 52.172L53.0316 56.5979C52.596 57.1367 51.7483 57.0965 51.3727 56.5002L49.6281 53.7292ZM47.8497 59.1621H30.8405C28.2689 59.1621 26.1165 57.1595 25.93 54.5973H25.8119C23.1019 54.5973 20.8884 52.3838 20.8884 49.6738V25.4539C20.8884 22.7433 23.1019 20.5304 25.8119 20.5304H44.6952C47.2668 20.5304 49.4192 22.533 49.6057 25.0947H49.7238C52.4338 25.0947 54.6478 27.3082 54.6478 30.0182V46.0833C58.3717 46.7039 61.112 49.9397 61.112 53.7242C61.112 58.0018 57.644 61.4698 53.3659 61.4698C51.282 61.4698 49.3131 60.6434 47.8497 59.1621ZM52.5995 46.0153V30.0182C52.5995 28.4392 51.3033 27.143 49.7238 27.143H30.8405C29.261 27.143 27.9648 28.4392 27.9648 30.0182V54.2381C27.9648 55.8176 29.261 57.1138 30.8405 57.1138H46.3992C45.8996 56.09 45.6198 54.9396 45.6198 53.7242C45.6198 49.7433 48.6429 46.4042 52.5995 46.0153ZM32.7906 43.72H41.9232C42.4887 43.72 42.947 44.1789 42.947 44.7444V52.9543C42.947 53.5198 42.4887 53.9787 41.9232 53.9787H32.7906C32.225 53.9787 31.7662 53.5198 31.7662 52.9543V44.7444C31.7662 44.1789 32.225 43.72 32.7906 43.72ZM40.8988 45.7683H33.8149V51.9304H40.8988V45.7683ZM25.9166 52.549V30.0182C25.9166 27.3082 28.1305 25.0947 30.8405 25.0947H47.5481C47.3675 23.6675 46.1372 22.5787 44.6952 22.5787H25.8119C24.2329 22.5787 22.9367 23.8744 22.9367 25.4539V49.6738C22.9367 51.2528 24.2329 52.549 25.8119 52.549H25.9166ZM42.3339 33.7109C40.9866 33.7109 40.9866 31.6626 42.3339 31.6626H47.619C48.9663 31.6626 48.9663 33.7109 47.619 33.7109H42.3339ZM42.3339 39.8681C40.9866 39.8681 40.9866 37.8198 42.3339 37.8198H47.619C48.9663 37.8198 48.9663 39.8681 47.619 39.8681H42.3339ZM42.3339 36.7895C40.9866 36.7895 40.9866 34.7412 42.3339 34.7412H47.619C48.9663 34.7412 48.9663 36.7895 47.619 36.7895H42.3339ZM31.4973 30.2255H39.6254C40.1909 30.2255 40.6493 30.6844 40.6493 31.2499V40.2808C40.6493 40.8463 40.1909 41.3052 39.6254 41.3052H31.4973C30.9318 41.3052 30.4729 40.8463 30.4729 40.2808V31.2499C30.4729 30.6844 30.9318 30.2255 31.4973 30.2255ZM38.601 32.2738H32.5212V39.2569H38.601V32.2738Z" fill="white"/>
</svg>
