<svg width="66" height="66" viewBox="0 0 66 66" fill="none" xmlns="http://www.w3.org/2000/svg">
<rect x="0.0644531" y="0.376923" width="65" height="65" fill="#FF2442"/>
<g clip-path="url(#clip0_229_583)">
<path d="M44.9304 51.2983C48.0769 51.2983 50.6282 48.7476 50.6282 45.601C50.6282 42.45 48.073 39.9032 44.9304 39.9032C41.7833 39.9032 39.2326 42.454 39.2326 45.601C39.2326 48.7391 41.7754 51.2983 44.9304 51.2983ZM41.1925 45.606C40.4782 44.4705 42.2065 43.3831 42.9208 44.5181L43.9452 46.1447L47.0436 42.6886C47.937 41.69 49.4575 43.0502 48.5641 44.0488L44.596 48.4747C44.1605 49.0135 43.3127 48.9733 42.9372 48.377L41.1925 45.606V45.606ZM39.4141 51.0389H22.405C19.8334 51.0389 17.6809 49.0363 17.4944 46.4741H17.3763C14.6663 46.4741 12.4529 44.2606 12.4529 41.5506V17.3307C12.4529 14.6202 14.6663 12.4072 17.3763 12.4072H36.2596C38.8312 12.4072 40.9837 14.4098 41.1702 16.9715H41.2883C43.9983 16.9715 46.2122 19.185 46.2122 21.895V37.9601C49.9362 38.5807 52.6765 41.8165 52.6765 45.601C52.6765 49.8786 49.2085 53.3466 44.9304 53.3466C42.8464 53.3466 40.8775 52.5202 39.4141 51.0389ZM44.164 37.8921V21.895C44.164 20.316 42.8677 19.0198 41.2883 19.0198H22.405C20.8255 19.0198 19.5293 20.316 19.5293 21.895V46.1149C19.5293 47.6944 20.8255 48.9906 22.405 48.9906H37.9636C37.4641 47.9668 37.1843 46.8164 37.1843 45.601C37.1843 41.6201 40.2073 38.2811 44.164 37.8921V37.8921ZM24.355 35.5968H33.4876C34.0531 35.5968 34.5115 36.0557 34.5115 36.6212V44.8311C34.5115 45.3966 34.0531 45.8555 33.4876 45.8555H24.355C23.7895 45.8555 23.3306 45.3966 23.3306 44.8311V36.6212C23.3306 36.0557 23.7895 35.5968 24.355 35.5968V35.5968ZM32.4632 37.6451H25.3794V43.8072H32.4632V37.6451ZM17.481 44.4258V21.895C17.481 19.185 19.695 16.9715 22.405 16.9715H39.1125C38.9319 15.5443 37.7017 14.4555 36.2596 14.4555H17.3763C15.7974 14.4555 14.5011 15.7512 14.5011 17.3307V41.5506C14.5011 43.1296 15.7974 44.4258 17.3763 44.4258H17.481V44.4258ZM33.8983 25.5877C32.551 25.5877 32.551 23.5394 33.8983 23.5394H39.1834C40.5308 23.5394 40.5308 25.5877 39.1834 25.5877H33.8983ZM33.8983 31.7449C32.551 31.7449 32.551 29.6966 33.8983 29.6966H39.1834C40.5308 29.6966 40.5308 31.7449 39.1834 31.7449H33.8983ZM33.8983 28.6663C32.551 28.6663 32.551 26.618 33.8983 26.618H39.1834C40.5308 26.618 40.5308 28.6663 39.1834 28.6663H33.8983ZM23.0618 22.1023H31.1898C31.7553 22.1023 32.2137 22.5612 32.2137 23.1267V32.1576C32.2137 32.7231 31.7553 33.182 31.1898 33.182H23.0618C22.4963 33.182 22.0374 32.7231 22.0374 32.1576V23.1267C22.0374 22.5612 22.4963 22.1023 23.0618 22.1023V22.1023ZM30.1654 24.1506H24.0857V31.1337H30.1654V24.1506Z" fill="white"/>
</g>
<defs>
<clipPath id="clip0_229_583">
<rect width="42" height="42" fill="white" transform="translate(11.5645 11.8768)"/>
</clipPath>
</defs>
</svg>
