<svg width="43" height="42" viewBox="0 0 43 42" fill="none" xmlns="http://www.w3.org/2000/svg">
<g clip-path="url(#clip0_108_85)">
<path d="M33.866 39.4212C37.0125 39.4212 39.5638 36.8704 39.5638 33.7238C39.5638 30.5728 37.0085 28.026 33.866 28.026C30.7189 28.026 28.1681 30.5768 28.1681 33.7238C28.1681 36.862 30.711 39.4212 33.866 39.4212ZM30.1281 33.7288C29.4138 32.5933 31.1421 31.5059 31.8564 32.6409L32.8808 34.2675L35.9792 30.8114C36.8726 29.8129 38.3931 31.1731 37.4996 32.1717L33.5316 36.5976C33.0961 37.1363 32.2483 37.0961 31.8728 36.4998L30.1281 33.7288ZM28.3497 39.1617H11.3406C8.76894 39.1617 6.61651 37.1591 6.42999 34.5969H6.31192C3.60191 34.5969 1.38846 32.3835 1.38846 29.6735V5.45349C1.38846 2.74298 3.60191 0.530029 6.31192 0.530029H25.1952C27.7668 0.530029 29.9193 2.53265 30.1058 5.09434H30.2238C32.9339 5.09434 35.1478 7.30779 35.1478 10.0178V26.0829C38.8718 26.7035 41.612 29.9394 41.612 33.7238C41.612 38.0014 38.144 41.4694 33.866 41.4694C31.782 41.4694 29.8131 40.643 28.3497 39.1617ZM33.0995 26.015V10.0178C33.0995 8.43882 31.8033 7.1426 30.2238 7.1426H11.3406C9.76108 7.1426 8.46485 8.43882 8.46485 10.0178V34.2378C8.46485 35.8172 9.76108 37.1135 11.3406 37.1135H26.8992C26.3997 36.0896 26.1199 34.9392 26.1199 33.7238C26.1199 29.7429 29.1429 26.4039 33.0995 26.015ZM13.2906 23.7197H22.4232C22.9887 23.7197 23.4471 24.1785 23.4471 24.744V32.9539C23.4471 33.5195 22.9887 33.9783 22.4232 33.9783H13.2906C12.7251 33.9783 12.2662 33.5195 12.2662 32.9539V24.744C12.2662 24.1785 12.7251 23.7197 13.2906 23.7197ZM21.3988 25.7679H14.315V31.9301H21.3988V25.7679ZM6.41659 32.5487V10.0178C6.41659 7.30779 8.63054 5.09434 11.3406 5.09434H28.0481C27.8675 3.66716 26.6373 2.57829 25.1952 2.57829H6.31192C4.73294 2.57829 3.43672 3.87402 3.43672 5.45349V29.6735C3.43672 31.2524 4.73294 32.5487 6.31192 32.5487H6.41659ZM22.8339 13.7105C21.4866 13.7105 21.4866 11.6623 22.8339 11.6623H28.119C29.4663 11.6623 29.4663 13.7105 28.119 13.7105H22.8339ZM22.8339 19.8677C21.4866 19.8677 21.4866 17.8194 22.8339 17.8194H28.119C29.4663 17.8194 29.4663 19.8677 28.119 19.8677H22.8339ZM22.8339 16.7891C21.4866 16.7891 21.4866 14.7409 22.8339 14.7409H28.119C29.4663 14.7409 29.4663 16.7891 28.119 16.7891H22.8339ZM11.9973 10.2252H20.1254C20.6909 10.2252 21.1493 10.684 21.1493 11.2495V20.2804C21.1493 20.8459 20.6909 21.3048 20.1254 21.3048H11.9973C11.4318 21.3048 10.973 20.8459 10.973 20.2804V11.2495C10.973 10.684 11.4318 10.2252 11.9973 10.2252ZM19.101 12.2734H13.0212V19.2566H19.101V12.2734Z" fill="#FF2442"/>
</g>
<defs>
<clipPath id="clip0_108_85">
<rect width="42" height="42" fill="white" transform="translate(0.5 -0.000366211)"/>
</clipPath>
</defs>
</svg>
