<svg width="23" height="23" viewBox="0 0 23 23" fill="none" xmlns="http://www.w3.org/2000/svg">
<path fill-rule="evenodd" clip-rule="evenodd" d="M11.8198 1.3606C6.25106 1.3606 1.73648 5.87518 1.73648 11.4439C1.73648 17.0127 6.25106 21.5273 11.8198 21.5273C17.3886 21.5273 21.9031 17.0127 21.9031 11.4439C21.9031 5.87518 17.3886 1.3606 11.8198 1.3606ZM16.1905 9.73893C16.271 9.64693 16.3322 9.53977 16.3707 9.42375C16.4091 9.30773 16.424 9.18518 16.4144 9.06333C16.4048 8.94148 16.3709 8.82278 16.3148 8.71421C16.2586 8.60565 16.1813 8.50941 16.0874 8.43116C15.9935 8.35291 15.8849 8.29423 15.768 8.25857C15.6511 8.22291 15.5282 8.21099 15.4066 8.22352C15.285 8.23605 15.1672 8.27276 15.06 8.33151C14.9528 8.39026 14.8585 8.46984 14.7825 8.5656L10.8408 13.2947L8.80123 11.2542C8.62834 11.0872 8.39679 10.9948 8.15645 10.9969C7.9161 10.999 7.68619 11.0954 7.51623 11.2653C7.34627 11.4353 7.24987 11.6652 7.24778 11.9056C7.24569 12.1459 7.33809 12.3775 7.50506 12.5503L10.2551 15.3003C10.3451 15.3904 10.453 15.4606 10.5717 15.5067C10.6904 15.5527 10.8174 15.5735 10.9446 15.5677C11.0719 15.5619 11.1965 15.5297 11.3105 15.4731C11.4246 15.4165 11.5256 15.3367 11.6071 15.2389L16.1905 9.73893Z" fill="#FF2442"/>
</svg>
