<svg width="61" height="61" viewBox="0 0 61 61" fill="none" xmlns="http://www.w3.org/2000/svg">
<g clip-path="url(#clip0_136_65)">
<path d="M45.7598 23.8438C46.0375 24.0043 46.3398 24.0805 46.6387 24.0805C47.2457 24.0805 47.8363 23.7653 48.1621 23.2016C48.3215 22.9262 48.3976 22.625 48.3988 22.3274C48.4 21.7192 48.0848 21.1262 47.5199 20.8004C46.6797 20.3141 45.6051 20.6012 45.1187 21.4414C44.9594 21.718 44.8832 22.0192 44.882 22.3157C44.8809 22.925 45.1961 23.5168 45.7598 23.8438Z" fill="#FF2442"/>
<path d="M29.9947 36.6244C29.4345 36.9514 29.1228 37.5408 29.124 38.1455C29.124 38.4455 29.2013 38.7502 29.3642 39.0291C29.6912 39.5881 30.2794 39.8998 30.883 39.8998C31.1841 39.8998 31.49 39.8225 31.7677 39.6596C32.3279 39.3326 32.6396 38.7444 32.6396 38.1385C32.6396 37.8385 32.5622 37.5338 32.3994 37.2561C31.9095 36.417 30.8337 36.1346 29.9947 36.6244Z" fill="#FF2442"/>
<path d="M35.0406 24.1089C35.343 24.1089 35.6488 24.0315 35.9277 23.8675C36.4867 23.5393 36.7984 22.9499 36.7973 22.3452C36.7961 22.0452 36.7187 21.7405 36.5558 21.4616C36.0648 20.6249 34.9879 20.3436 34.15 20.8346C33.591 21.1616 33.2793 21.751 33.2805 22.3557C33.2816 22.6569 33.359 22.9616 33.5219 23.2393C33.8488 23.7983 34.4371 24.1089 35.0406 24.1089Z" fill="#FF2442"/>
<path d="M29.3196 34.1428C30.2864 34.1382 31.068 33.3542 31.0704 32.3885V32.378C31.0657 31.4065 30.2758 30.6225 29.3055 30.6272C28.3376 30.6319 27.5571 31.4159 27.5547 32.3815V32.3921C27.5583 33.3612 28.3446 34.1428 29.3126 34.1428H29.3196Z" fill="#FF2442"/>
<path d="M40.8683 22.5266C41.8387 22.5266 42.6262 21.7391 42.6262 20.7688C42.6262 19.7985 41.8387 19.011 40.8683 19.011C39.8969 19.011 39.1105 19.7985 39.1105 20.7688C39.1105 21.7403 39.8969 22.5266 40.8683 22.5266Z" fill="#FF2442"/>
<path d="M29.9593 28.1244C30.2347 28.2826 30.5347 28.3576 30.8312 28.3576C31.4405 28.3576 32.0335 28.0401 32.3581 27.4729C32.5163 27.1963 32.5913 26.8951 32.5913 26.5975C32.5902 25.9893 32.2726 25.3987 31.7066 25.074C30.864 24.5912 29.7894 24.883 29.3077 25.7256C29.1484 26.0022 29.0745 26.3033 29.0745 26.601C29.0757 27.2092 29.3933 27.801 29.9593 28.1244Z" fill="#FF2442"/>
<path d="M35.9991 40.8369C35.1565 40.3529 34.0819 40.6435 33.5991 41.4861C33.4397 41.7615 33.3647 42.0627 33.3647 42.3603C33.3647 42.9685 33.6823 43.5603 34.2471 43.8861V43.8849C34.5237 44.0443 34.8249 44.1193 35.1214 44.1193C35.7307 44.1193 36.3225 43.8029 36.6471 43.2369C36.8065 42.9603 36.8815 42.6591 36.8815 42.3627C36.8815 41.7533 36.5639 41.1615 35.9991 40.8369Z" fill="#FF2442"/>
<path d="M51.765 36.5602C50.9235 36.0762 49.8489 36.3645 49.3638 37.2059C49.2044 37.4813 49.1294 37.7824 49.1282 38.0801C49.1282 38.6883 49.4435 39.2801 50.0095 39.6059C50.286 39.7653 50.5872 39.8414 50.8849 39.8414C51.4931 39.8414 52.0837 39.5262 52.4095 38.9613C52.5689 38.6848 52.6439 38.3836 52.645 38.0871C52.645 37.4777 52.3298 36.8859 51.765 36.5602Z" fill="#FF2442"/>
<path d="M50.8719 28.2992C51.1719 28.2992 51.4743 28.223 51.752 28.0613C52.3133 27.7355 52.6274 27.1484 52.6286 26.5426C52.6286 26.2426 52.5524 25.9379 52.3907 25.659C51.9032 24.8187 50.8274 24.5328 49.9883 25.0203C49.427 25.3461 49.1129 25.9344 49.1118 26.539C49.1118 26.839 49.1879 27.1437 49.3496 27.4226C49.6754 27.9851 50.2661 28.2992 50.8719 28.2992Z" fill="#FF2442"/>
<path d="M52.4218 30.554C51.4503 30.5551 50.6652 31.3426 50.6663 32.3141C50.6675 33.2833 51.455 34.0696 52.4241 34.0696H52.4265C53.398 34.0672 54.1831 33.2797 54.1819 32.3083C54.1808 31.3379 53.3921 30.5516 52.4218 30.554Z" fill="#FF2442"/>
<path d="M40.8955 42.1262C39.9251 42.1286 39.14 42.9184 39.1435 43.8887C39.1458 44.8579 39.9322 45.6418 40.9001 45.6418H40.906C41.8763 45.6395 42.6615 44.8497 42.6591 43.8794C42.6556 42.9079 41.8669 42.1239 40.8955 42.1262Z" fill="#FF2442"/>
<path d="M45.7855 40.7981C45.2254 41.1238 44.9125 41.7121 44.9113 42.318C44.9113 42.618 44.9887 42.9227 45.1504 43.2016C45.4773 43.7617 46.0668 44.0746 46.6715 44.0746C46.9715 44.0746 47.2762 43.9985 47.5539 43.8367C48.1141 43.5098 48.4281 42.9215 48.4281 42.3168C48.4281 42.0156 48.3508 41.711 48.1891 41.4332C47.7004 40.5942 46.6246 40.3094 45.7855 40.7981Z" fill="#FF2442"/>
<path d="M40.8671 48.5341C31.9324 48.5341 24.6635 41.2652 24.6635 32.3306C24.6635 23.396 31.9324 16.1271 40.8671 16.1271C49.8018 16.1271 57.0707 23.396 57.0707 32.3306C57.0707 41.2652 49.8018 48.5341 40.8671 48.5341ZM54.3592 17.9639L55.3013 17.0217L56.8192 18.5395C57.1623 18.8828 57.6122 19.0544 58.0621 19.0544C58.512 19.0544 58.9618 18.8828 59.305 18.5395C59.9914 17.853 59.9914 16.7401 59.305 16.0536L56.547 13.2956C56.546 13.2946 56.5453 13.2936 56.5443 13.2926C56.5433 13.2917 56.5423 13.2909 56.5413 13.29L53.6659 10.4145C52.9795 9.72804 51.8665 9.72804 51.18 10.4145C50.4936 11.101 50.4936 12.2139 51.18 12.9004L52.8154 14.5358L51.5728 15.7783C48.4877 13.776 44.8111 12.6114 40.8671 12.6114C36.9232 12.6114 33.2464 13.776 30.1614 15.7784L28.9188 14.5358L30.5541 12.9004C31.2405 12.2139 31.2405 11.101 30.5541 10.4145C29.8677 9.72804 28.7546 9.72804 28.0682 10.4145L25.1931 13.2897C25.192 13.2908 25.1909 13.2916 25.1898 13.2926C25.1887 13.2937 25.1879 13.2949 25.1869 13.2959L22.4292 16.0536C21.7427 16.7401 21.7427 17.8531 22.4292 18.5395C22.7723 18.8828 23.2222 19.0544 23.6721 19.0544C24.122 19.0544 24.5719 18.8828 24.915 18.5395L26.4328 17.0218L27.375 17.964C23.5445 21.5634 21.1479 26.6721 21.1479 32.3306C21.1479 43.2037 29.9939 52.0497 40.8671 52.0497C51.7404 52.0497 60.5863 43.2037 60.5863 32.3306C60.5863 26.6719 58.1897 21.5634 54.3592 17.9639Z" fill="#FF2442"/>
<path d="M41.3827 35.5552L45.3463 31.5919C46.0329 30.9056 46.0329 29.7925 45.3465 29.106C44.6601 28.4194 43.547 28.4194 42.8606 29.1059L40.1398 31.8264L38.8757 30.5626C38.1892 29.8762 37.0762 29.8762 36.3898 30.5627C35.7034 31.2493 35.7034 32.3622 36.39 33.0487L38.8969 35.5552C39.2402 35.8985 39.69 36.07 40.1398 36.07C40.5896 36.07 41.0395 35.8985 41.3827 35.5552Z" fill="#FF2442"/>
<path d="M16.8741 17.0042H11.9487C10.9779 17.0042 10.1909 17.7912 10.1909 18.762C10.1909 19.7327 10.9779 20.5198 11.9487 20.5198H16.8741C17.8448 20.5198 18.6319 19.7327 18.6319 18.762C18.6319 17.7912 17.8448 17.0042 16.8741 17.0042Z" fill="#FF2442"/>
<path d="M16.8741 23.7864H10.114C9.14317 23.7864 8.35614 24.5734 8.35614 25.5442C8.35614 26.515 9.14317 27.302 10.114 27.302H16.8741C17.8449 27.302 18.632 26.515 18.632 25.5442C18.632 24.5734 17.8449 23.7864 16.8741 23.7864Z" fill="#FF2442"/>
<path d="M16.874 30.5686H7.14581C6.17503 30.5686 5.388 31.3556 5.388 32.3264C5.388 33.2972 6.17503 34.0842 7.14581 34.0842H16.874C17.8448 34.0842 18.6318 33.2972 18.6318 32.3264C18.6318 31.3556 17.8448 30.5686 16.874 30.5686Z" fill="#FF2442"/>
<path d="M16.8737 37.3508H4.72333C3.75255 37.3508 2.96552 38.1379 2.96552 39.1086C2.96552 40.0794 3.75255 40.8665 4.72333 40.8665H16.8737C17.8445 40.8665 18.6315 40.0794 18.6315 39.1086C18.6315 38.1379 17.8445 37.3508 16.8737 37.3508Z" fill="#FF2442"/>
<path d="M16.8739 44.1477H2.34479C1.37401 44.1477 0.586975 44.9347 0.586975 45.9055C0.586975 46.8763 1.37401 47.6633 2.34479 47.6633H16.8739C17.8447 47.6633 18.6317 46.8763 18.6317 45.9055C18.6317 44.9347 17.8447 44.1477 16.8739 44.1477Z" fill="#FF2442"/>
</g>
<defs>
<clipPath id="clip0_136_65">
<rect width="60" height="60" fill="white" transform="translate(0.586975 0.97876)"/>
</clipPath>
</defs>
</svg>
