<svg width="50" height="51" viewBox="0 0 50 51" fill="none" xmlns="http://www.w3.org/2000/svg">
<path d="M37.644 19.712C37.8755 19.8458 38.1274 19.9093 38.3765 19.9093C38.8823 19.9093 39.3745 19.6466 39.646 19.1769C39.7788 18.9474 39.8423 18.6964 39.8433 18.4483C39.8442 17.9415 39.5815 17.4474 39.1108 17.1759C38.4106 16.7706 37.5151 17.0099 37.1099 17.7101C36.9771 17.9405 36.9136 18.1915 36.9126 18.4386C36.9116 18.9464 37.1743 19.4396 37.644 19.712Z" fill="white"/>
<path d="M24.5064 30.3626C24.0396 30.635 23.7798 31.1262 23.7808 31.6302C23.7808 31.8802 23.8452 32.1341 23.981 32.3665C24.2534 32.8323 24.7437 33.0921 25.2466 33.0921C25.4976 33.0921 25.7524 33.0276 25.9839 32.8919C26.4507 32.6194 26.7105 32.1292 26.7105 31.6243C26.7105 31.3743 26.646 31.1204 26.5103 30.8889C26.1021 30.1897 25.2056 29.9544 24.5064 30.3626Z" fill="white"/>
<path d="M28.7114 19.9329C28.9634 19.9329 29.2183 19.8685 29.4507 19.7317C29.9165 19.4583 30.1763 18.9671 30.1753 18.4632C30.1743 18.2132 30.1099 17.9593 29.9741 17.7269C29.5649 17.0296 28.6675 16.7952 27.9692 17.2044C27.5034 17.4769 27.2437 17.9681 27.2446 18.472C27.2456 18.723 27.3101 18.9769 27.4458 19.2083C27.7183 19.6741 28.2085 19.9329 28.7114 19.9329Z" fill="white"/>
<path d="M23.9438 28.2944C24.7495 28.2905 25.4009 27.6372 25.4028 26.8325V26.8237C25.3989 26.0142 24.7407 25.3609 23.9321 25.3648C23.1255 25.3687 22.4751 26.022 22.4731 26.8267V26.8355C22.4761 27.6431 23.1313 28.2944 23.938 28.2944H23.9438Z" fill="white"/>
<path d="M33.5679 18.6145C34.3765 18.6145 35.0327 17.9583 35.0327 17.1497C35.0327 16.3411 34.3765 15.6848 33.5679 15.6848C32.7583 15.6848 32.103 16.3411 32.103 17.1497C32.103 17.9592 32.7583 18.6145 33.5679 18.6145Z" fill="white"/>
<path d="M24.4771 23.2792C24.7065 23.4111 24.9565 23.4736 25.2036 23.4736C25.7114 23.4736 26.2056 23.2089 26.4761 22.7363C26.6079 22.5058 26.6704 22.2548 26.6704 22.0068C26.6694 21.4999 26.4048 21.0077 25.9331 20.7372C25.231 20.3349 24.3354 20.5781 23.9341 21.2802C23.8013 21.5107 23.7397 21.7617 23.7397 22.0097C23.7407 22.5165 24.0054 23.0097 24.4771 23.2792Z" fill="white"/>
<path d="M29.5103 33.8729C28.8081 33.4696 27.9126 33.7118 27.5103 34.4139C27.3774 34.6434 27.3149 34.8944 27.3149 35.1425C27.3149 35.6493 27.5796 36.1425 28.0503 36.4139V36.413C28.2808 36.5458 28.5317 36.6083 28.7788 36.6083C29.2866 36.6083 29.7798 36.3446 30.0503 35.8729C30.1831 35.6425 30.2456 35.3915 30.2456 35.1444C30.2456 34.6366 29.981 34.1434 29.5103 33.8729Z" fill="white"/>
<path d="M42.6484 30.3091C41.9473 29.9058 41.0518 30.146 40.6475 30.8472C40.5146 31.0767 40.4521 31.3277 40.4512 31.5757C40.4512 32.0826 40.7139 32.5757 41.1855 32.8472C41.416 32.98 41.667 33.0435 41.915 33.0435C42.4219 33.0435 42.9141 32.7808 43.1856 32.3101C43.3184 32.0796 43.3809 31.8287 43.3818 31.5816C43.3818 31.0738 43.1191 30.5806 42.6484 30.3091Z" fill="white"/>
<path d="M41.9043 23.4249C42.1543 23.4249 42.4063 23.3614 42.6377 23.2266C43.1055 22.9551 43.3672 22.4659 43.3682 21.961C43.3682 21.711 43.3047 21.4571 43.1699 21.2247C42.7637 20.5245 41.8672 20.2862 41.168 20.6924C40.7002 20.9639 40.4385 21.4542 40.4375 21.9581C40.4375 22.2081 40.501 22.462 40.6357 22.6944C40.9072 23.1631 41.3994 23.4249 41.9043 23.4249Z" fill="white"/>
<path d="M43.1958 25.3038C42.3862 25.3048 41.7319 25.9611 41.7329 26.7706C41.7339 27.5782 42.3901 28.2335 43.1978 28.2335H43.1997C44.0093 28.2316 44.6636 27.5753 44.6626 26.7657C44.6616 25.9572 44.0044 25.3019 43.1958 25.3038Z" fill="white"/>
<path d="M33.5903 34.9474C32.7817 34.9493 32.1275 35.6075 32.1304 36.4161C32.1323 37.2238 32.7876 37.8771 33.5942 37.8771H33.5991C34.4077 37.8751 35.062 37.2169 35.0601 36.4083C35.0571 35.5988 34.3999 34.9454 33.5903 34.9474Z" fill="white"/>
<path d="M37.6655 33.8405C37.1987 34.112 36.938 34.6022 36.937 35.1071C36.937 35.3571 37.0015 35.611 37.1362 35.8434C37.4087 36.3102 37.8999 36.571 38.4038 36.571C38.6538 36.571 38.9077 36.5075 39.1392 36.3727C39.606 36.1003 39.8677 35.61 39.8677 35.1061C39.8677 34.8552 39.8032 34.6013 39.6685 34.3698C39.2612 33.6706 38.3647 33.4333 37.6655 33.8405Z" fill="white"/>
<path d="M33.567 40.2873C26.1214 40.2873 20.064 34.2299 20.064 26.7844C20.064 19.3388 26.1214 13.2814 33.567 13.2814C41.0125 13.2814 47.0699 19.3388 47.0699 26.7844C47.0699 34.2299 41.0125 40.2873 33.567 40.2873ZM44.8104 14.8121L45.5954 14.0269L46.8603 15.2918C47.1463 15.5779 47.5212 15.7209 47.8961 15.7209C48.271 15.7209 48.6459 15.5779 48.9318 15.2918C49.5039 14.7197 49.5039 13.7923 48.9318 13.2202L46.6335 10.9219C46.6327 10.9211 46.6321 10.9202 46.6313 10.9194C46.6305 10.9186 46.6296 10.9179 46.6288 10.9172L44.2326 8.52097C43.6606 7.9489 42.7331 7.9489 42.161 8.52097C41.5891 9.09304 41.5891 10.0205 42.161 10.5926L43.5238 11.9553L42.4884 12.9908C39.9175 11.3222 36.8536 10.3517 33.567 10.3517C30.2804 10.3517 27.2164 11.3222 24.6455 12.9909L23.6101 11.9553L24.9728 10.5926C25.5448 10.0205 25.5448 9.09304 24.9728 8.52097C24.4008 7.9489 23.4732 7.9489 22.9012 8.52097L20.5053 10.917C20.5044 10.9178 20.5034 10.9185 20.5025 10.9194C20.5017 10.9203 20.501 10.9213 20.5001 10.9221L18.202 13.2202C17.63 13.7923 17.63 14.7198 18.202 15.2918C18.488 15.5779 18.8629 15.7209 19.2378 15.7209C19.6127 15.7209 19.9876 15.5779 20.2735 15.2918L21.5384 14.027L22.3235 14.8122C19.1314 17.8117 17.1343 22.0689 17.1343 26.7844C17.1343 35.8453 24.506 43.217 33.567 43.217C42.628 43.217 49.9996 35.8453 49.9996 26.7844C49.9996 22.0688 48.0024 17.8117 44.8104 14.8121Z" fill="white"/>
<path d="M33.9964 29.4716L37.2995 26.1688C37.8716 25.5968 37.8716 24.6693 37.2996 24.0972C36.7276 23.5251 35.8001 23.5251 35.228 24.0971L32.9607 26.3642L31.9073 25.311C31.3352 24.739 30.4077 24.739 29.8357 25.3111C29.2637 25.8833 29.2637 26.8107 29.8359 27.3828L31.925 29.4716C32.211 29.7576 32.5859 29.9006 32.9607 29.9006C33.3355 29.9006 33.7104 29.7576 33.9964 29.4716Z" fill="white"/>
<path d="M13.5728 14.0123H9.46826C8.65928 14.0123 8.00342 14.6682 8.00342 15.4772C8.00342 16.2862 8.65928 16.942 9.46826 16.942H13.5728C14.3817 16.942 15.0376 16.2862 15.0376 15.4772C15.0376 14.6682 14.3817 14.0123 13.5728 14.0123Z" fill="white"/>
<path d="M13.5725 19.6642H7.93896C7.12998 19.6642 6.47412 20.32 6.47412 21.129C6.47412 21.938 7.12998 22.5939 7.93896 22.5939H13.5725C14.3814 22.5939 15.0373 21.938 15.0373 21.129C15.0373 20.32 14.3814 19.6642 13.5725 19.6642Z" fill="white"/>
<path d="M13.5727 25.316H5.46582C4.65684 25.316 4.00098 25.9719 4.00098 26.7809C4.00098 27.5899 4.65684 28.2457 5.46582 28.2457H13.5727C14.3816 28.2457 15.0375 27.5899 15.0375 26.7809C15.0375 25.9719 14.3816 25.316 13.5727 25.316Z" fill="white"/>
<path d="M13.5721 30.968H3.44678C2.63779 30.968 1.98193 31.6239 1.98193 32.4329C1.98193 33.2418 2.63779 33.8977 3.44678 33.8977H13.5721C14.3811 33.8977 15.0369 33.2418 15.0369 32.4329C15.0369 31.6239 14.3811 30.968 13.5721 30.968Z" fill="white"/>
<path d="M13.5725 36.6318H1.46484C0.655859 36.6318 0 37.2877 0 38.0967C0 38.9057 0.655859 39.5615 1.46484 39.5615H13.5725C14.3814 39.5615 15.0373 38.9057 15.0373 38.0967C15.0373 37.2877 14.3814 36.6318 13.5725 36.6318Z" fill="white"/>
</svg>
