<svg width="51" height="50" viewBox="0 0 51 50" fill="none" xmlns="http://www.w3.org/2000/svg">
<path d="M48.2156 39.3495L38.6609 29.7948C41.2641 26.7089 42.6875 22.8448 42.6875 18.7495C42.6875 18.3026 42.6703 17.837 42.6359 17.4073C42.5672 16.5464 41.7906 15.8839 40.9547 15.9745C40.0938 16.0433 39.4531 16.7964 39.5219 17.6558C39.5484 18.0058 39.5625 18.3854 39.5625 18.7495C39.5625 22.5323 38.0844 26.0776 35.4031 28.7308C33.3578 30.7464 30.7984 32.0808 27.9844 32.5901C26.4938 32.8792 24.6688 32.898 22.9203 32.5714C20.1344 32.0636 17.5875 30.7214 15.5578 28.6917C12.9016 26.0339 11.4375 22.5026 11.4375 18.7495C11.4375 10.9964 17.7469 4.68701 25.5 4.68701C29.2828 4.68701 32.8344 6.16982 35.4984 8.86357C36.1047 9.47607 37.0953 9.48232 37.7078 8.87607C38.3219 8.26982 38.3266 7.28076 37.7203 6.6667C34.4641 3.37451 30.1234 1.56201 25.5 1.56201C16.0234 1.56201 8.31251 9.27295 8.31251 18.7495C8.31251 22.8136 9.72032 26.6604 12.2969 29.7433L2.52032 39.5198C2.07344 39.9667 1.93907 40.6386 2.18126 41.2229C2.42344 41.8058 2.99376 42.187 3.62501 42.187H8.31251V46.8745C8.31251 47.5058 8.69376 48.0761 9.27657 48.3183C9.47032 48.3979 9.67344 48.437 9.87501 48.437C10.2813 48.437 10.6813 48.2776 10.9797 47.9792L23.1969 35.762C23.9641 35.8667 24.7328 35.937 25.5 35.937C26.2797 35.937 27.0172 35.8714 27.725 35.7776L39.9266 47.9792C40.225 48.2776 40.625 48.437 41.0313 48.437C41.2328 48.437 41.4359 48.3979 41.6297 48.3183C42.2141 48.0761 42.5938 47.5058 42.5938 46.8745V42.187H47.2813C47.2859 42.187 47.2922 42.187 47.2969 42.187C48.2266 42.1433 48.875 41.4933 48.875 40.6245C48.875 40.0979 48.6141 39.6323 48.2156 39.3495ZM11.4375 43.1026V40.6245C11.4375 39.762 10.7375 39.062 9.87501 39.062H7.39688L14.5016 31.9573C14.5984 32.037 14.7016 32.1073 14.7984 32.1855C15.0391 32.3792 15.2828 32.5683 15.5328 32.7464C15.6766 32.8495 15.8234 32.9464 15.9703 33.0448C16.2156 33.2089 16.4625 33.3683 16.7156 33.5183C16.8688 33.6104 17.0234 33.6995 17.1797 33.7854C17.4391 33.9292 17.7016 34.0651 17.9672 34.1948C18.1219 34.2698 18.275 34.3464 18.4313 34.4167C18.7219 34.548 19.0172 34.6667 19.3141 34.7808C19.4203 34.8214 19.5219 34.8714 19.6297 34.9104L11.4375 43.1026ZM41.0313 39.062C40.1688 39.062 39.4688 39.762 39.4688 40.6245V43.1026L31.2969 34.9292C31.4156 34.887 31.5297 34.8308 31.6484 34.7854C31.9281 34.6776 32.2063 34.5683 32.4813 34.4464C32.6516 34.3698 32.8188 34.287 32.9875 34.2073C33.2406 34.0839 33.4906 33.9573 33.7359 33.8214C33.9031 33.7292 34.0688 33.6354 34.2328 33.5386C34.4766 33.3948 34.7141 33.2448 34.95 33.0886C35.1063 32.9854 35.2609 32.8839 35.4125 32.7761C35.6594 32.6011 35.9 32.4167 36.1375 32.2276C36.2375 32.1479 36.3438 32.0776 36.4422 31.9964L43.5094 39.062H41.0313Z" fill="#FF2442"/>
<path d="M18.275 16.0916C17.6469 15.5025 16.6563 15.5353 16.0672 16.165C15.4781 16.7947 15.5109 17.7838 16.1406 18.3728L24.4422 26.14C24.7406 26.4213 25.125 26.5619 25.5078 26.5619C25.8906 26.5619 26.275 26.4213 26.575 26.14L43.275 10.515C43.9047 9.92594 43.9375 8.93688 43.3484 8.30719C42.7578 7.67594 41.7687 7.64469 41.1406 8.23375L25.5094 22.8588L18.275 16.0916Z" fill="#FF2442"/>
</svg>
