<svg width="31" height="31" viewBox="0 0 31 31" fill="none" xmlns="http://www.w3.org/2000/svg">
<path d="M25.3584 8.74878L19.0537 2.44409C18.8779 2.26831 18.6406 2.1687 18.3916 2.1687H5.94629C5.42773 2.1687 5.00879 2.58765 5.00879 3.1062V27.4812C5.00879 27.9998 5.42773 28.4187 5.94629 28.4187H24.6963C25.2148 28.4187 25.6338 27.9998 25.6338 27.4812V9.41382C25.6338 9.16479 25.5342 8.92456 25.3584 8.74878ZM23.4717 9.84448H17.958V4.33081L23.4717 9.84448ZM23.5244 26.3093H7.11816V4.27808H15.9658V10.6062C15.9658 10.9325 16.0955 11.2455 16.3262 11.4763C16.557 11.707 16.8699 11.8367 17.1963 11.8367H23.5244V26.3093Z" fill="white"/>
</svg>
