<svg width="13" height="12" viewBox="0 0 13 12" fill="none" xmlns="http://www.w3.org/2000/svg">
<path d="M6.089 9.7845C6.13487 9.85112 6.19625 9.90559 6.26784 9.94322C6.33944 9.98086 6.41911 10.0005 6.5 10.0005C6.58088 10.0005 6.66056 9.98086 6.73215 9.94322C6.80375 9.90559 6.86513 9.85112 6.911 9.7845L11.411 3.2845C11.4631 3.20953 11.4936 3.12172 11.4993 3.0306C11.505 2.93949 11.4856 2.84856 11.4432 2.7677C11.4009 2.68683 11.3372 2.61912 11.259 2.57193C11.1809 2.52473 11.0913 2.49986 11 2.5H2C1.90892 2.50038 1.81967 2.52557 1.74184 2.57288C1.66401 2.62019 1.60055 2.68782 1.55828 2.7685C1.51602 2.84917 1.49654 2.93985 1.50195 3.03077C1.50737 3.12168 1.53746 3.20941 1.589 3.2845L6.089 9.7845Z" fill="white"/>
</svg>
