<svg width="82" height="82" viewBox="0 0 82 82" fill="none" xmlns="http://www.w3.org/2000/svg">
<circle cx="41" cy="41" r="41" fill="#FF2442"/>
<g clip-path="url(#clip0_557_1736)">
<path d="M57.5371 30.2344V31.2305V53.3594H53.248V33.5156V32.5156H51.2598V33.5156V53.3594H46.9863V36.5V35.4844H44.9863V36.5V53.3594H40.2793H39.2871V55.375H40.2793H61.0996H62.0918V53.3594H61.0996H59.5254V31.2305V30.2344H57.5371Z" fill="white"/>
<path d="M51.3926 18.625V20.6367H52.4043H55.0879L49.0215 26.8008L45.6074 23.3398L37.9355 31.6055L37.5137 32.0586C35.7315 30.9078 33.6185 30.2344 31.3496 30.2344C25.0379 30.2344 19.9082 35.4012 19.9082 41.75C19.9082 48.0987 25.0379 53.2695 31.3496 53.2695C37.6613 53.2695 42.8027 48.0987 42.8027 41.75C42.8027 38.4101 41.3715 35.4073 39.1035 33.3008L39.4043 32.9766L45.666 26.2344L49.0215 29.6367L56.4707 22.0664V24.7852V25.7852H58.4707V24.7852V18.625H52.4043H51.3926ZM31.3496 32.2461C36.5831 32.2461 40.8145 36.4848 40.8145 41.75C40.8145 47.0151 36.5831 51.2578 31.3496 51.2578C26.1161 51.2578 21.8965 47.0151 21.8965 41.75C21.8965 36.4848 26.1161 32.2461 31.3496 32.2461Z" fill="white"/>
<path d="M30.3496 35.5039V36.5117V37.0977H27.8457V42.75H32.8613V44.3945H28.8574H27.8457V46.4062H28.8574H30.3496V46.9883V48H32.3574V46.9883V46.4062H34.8496V40.7383H29.8496V39.1094H33.8574H34.8496V37.0977H33.8574H32.3574V36.5117V35.5039H30.3496Z" fill="white"/>
</g>
<defs>
<clipPath id="clip0_557_1736">
<rect width="48" height="48" fill="white" transform="translate(17 17)"/>
</clipPath>
</defs>
</svg>
