<svg width="49" height="48" viewBox="0 0 49 48" fill="none" xmlns="http://www.w3.org/2000/svg">
<path d="M41.0371 17.234V18.2301V40.359H36.748V20.5153V19.5153H34.7598V20.5153V40.359H30.4863V23.4996V22.484H28.4863V23.4996V40.359H23.7793H22.7871V42.3746H23.7793H44.5996H45.5918V40.359H44.5996H43.0254V18.2301V17.234H41.0371Z" fill="#FF2442"/>
<path d="M34.8926 5.62463V7.63635H35.9043H38.5879L32.5215 13.8004L29.1074 10.3395L21.4355 18.6051L21.0137 19.0582C19.2315 17.9074 17.1185 17.234 14.8496 17.234C8.53793 17.234 3.4082 22.4009 3.4082 28.7496C3.4082 35.0983 8.53793 40.2692 14.8496 40.2692C21.1613 40.2692 26.3027 35.0983 26.3027 28.7496C26.3027 25.4097 24.8715 22.4069 22.6035 20.3004L22.9043 19.9762L29.166 13.234L32.5215 16.6364L39.9707 9.06604V11.7848V12.7848H41.9707V11.7848V5.62463H35.9043H34.8926ZM14.8496 19.2457C20.0831 19.2457 24.3145 23.4845 24.3145 28.7496C24.3145 34.0147 20.0831 38.2574 14.8496 38.2574C9.61613 38.2574 5.39648 34.0147 5.39648 28.7496C5.39648 23.4845 9.61613 19.2457 14.8496 19.2457Z" fill="#FF2442"/>
<path d="M13.8496 22.5035V23.5114V24.0973H11.3457V29.7496H16.3613V31.3942H12.3574H11.3457V33.4059H12.3574H13.8496V33.9879V34.9996H15.8574V33.9879V33.4059H18.3496V27.7379H13.3496V26.109H17.3574H18.3496V24.0973H17.3574H15.8574V23.5114V22.5035H13.8496Z" fill="#FF2442"/>
</svg>
