<svg width="66" height="66" viewBox="0 0 66 66" fill="none" xmlns="http://www.w3.org/2000/svg">
<rect x="0.564453" y="0.376953" width="65" height="65" fill="#FF2442"/>
<path d="M49.6016 26.1113V27.1074V49.2363H45.3125V29.3926V28.3926H43.3242V29.3926V49.2363H39.0508V32.377V31.3613H37.0508V32.377V49.2363H32.3438H31.3516V51.252H32.3438H53.1641H54.1562V49.2363H53.1641H51.5898V27.1074V26.1113H49.6016Z" fill="white"/>
<path d="M43.457 14.502V16.5137H44.4688H47.1523L41.0859 22.6777L37.6719 19.2168L30 27.4824L29.5781 27.9355C27.7959 26.7848 25.6829 26.1113 23.4141 26.1113C17.1024 26.1113 11.9727 31.2782 11.9727 37.627C11.9727 43.9757 17.1024 49.1465 23.4141 49.1465C29.7257 49.1465 34.8672 43.9757 34.8672 37.627C34.8672 34.287 33.436 31.2842 31.168 29.1777L31.4688 28.8535L37.7305 22.1113L41.0859 25.5137L48.5352 17.9434V20.6621V21.6621H50.5352V20.6621V14.502H44.4688H43.457ZM23.4141 28.123C28.6475 28.123 32.8789 32.3618 32.8789 37.627C32.8789 42.892 28.6475 47.1348 23.4141 47.1348C18.1806 47.1348 13.9609 42.892 13.9609 37.627C13.9609 32.3618 18.1806 28.123 23.4141 28.123Z" fill="white"/>
<path d="M22.4141 31.3809V32.3887V32.9746H19.9102V38.627H24.9258V40.2715H20.9219H19.9102V42.2832H20.9219H22.4141V42.8652V43.877H24.4219V42.8652V42.2832H26.9141V36.6152H21.9141V34.9863H25.9219H26.9141V32.9746H25.9219H24.4219V32.3887V31.3809H22.4141Z" fill="white"/>
</svg>
