<svg width="101" height="100" viewBox="0 0 101 100" fill="none" xmlns="http://www.w3.org/2000/svg">
<path d="M0.5 0.00012207H70.5C87.0685 0.00012207 100.5 13.4316 100.5 30.0001V100H30.5C13.9315 100 0.5 86.5687 0.5 70.0001V0.00012207Z" fill="#FF2442"/>
<path d="M56.7119 31.067C55.6712 31.0745 54.6381 31.1251 53.5469 31.4176C52.3581 31.7403 51.2301 32.2552 50.2075 32.942C48.7712 32.0982 47.38 31.4045 46.0469 31.2413C44.3913 31.037 42.8538 31.1476 41.0669 31.1851C38.9481 31.2282 37.5662 32.3101 35.3238 33.1763C33.0831 34.0388 30.1975 34.8751 26.125 34.8751H24.25V52.922L25.3056 53.4488L28.7613 55.1495L41.0669 68.8595L41.125 68.9176C42.5312 70.3088 44.4288 70.6538 46.105 70.5582C47.7831 70.4645 49.3581 69.9732 50.6163 69.212C53.3856 67.5413 60.9287 62.297 60.9287 62.297L61.105 62.1788L61.2231 62.0626C62.1156 61.1757 62.5638 60.0938 62.8638 58.9576L70.0694 55.3238L75.46 53.5088L76.75 53.0963V34.8751H74.875C71.7232 34.8966 68.5978 34.2991 65.6763 33.1163C63.4338 32.2407 62.0725 31.1701 59.9313 31.1251C58.7875 31.1026 57.7487 31.0595 56.71 31.067H56.7119ZM56.7681 34.817C57.6119 34.8095 58.5869 34.8545 59.8169 34.8751C60.0137 34.8826 61.8156 35.6513 64.3281 36.6338C66.4525 37.4682 69.4038 38.2088 73 38.4488V50.402L68.6631 51.8682H68.5469L68.4287 51.9245L62.7475 54.797C62.4459 53.9268 61.9671 53.1288 61.3412 52.4532L61.2231 52.277L53.2544 42.4932L52.0825 41.027L50.6163 42.1988L45.5781 46.3013C43.8869 47.4732 42.5163 47.1357 41.125 46.4776C40.7219 46.2863 40.7444 46.2282 40.4219 46.0088L48.9775 38.9176L49.0938 38.8013C51.6344 36.2813 53.1963 35.4095 54.5425 35.0513C55.2175 34.8676 55.9281 34.8245 56.77 34.817H56.7681ZM43.705 34.8751C44.3306 34.8515 44.9571 34.8709 45.58 34.9332C46.0713 34.9913 46.6281 35.4095 47.1044 35.5782C46.9131 35.7545 46.7744 35.8557 46.5756 36.047L46.4594 36.1651L36.205 44.6588L34.6225 45.9488L36.0287 47.4132C36.0287 47.4132 37.3844 48.8795 39.4863 49.8751C41.5881 50.8707 44.8337 51.4351 47.7475 49.4063L47.8656 49.2882L51.4975 46.3013L58.4125 54.797L58.4706 54.9151L58.5287 54.9713C59.7663 56.1957 59.7381 58.1213 58.5287 59.3682C58.5137 59.3813 58.5438 59.4113 58.5287 59.4245C58.5137 59.4338 58.2663 59.5801 58.2362 59.6026L55.7744 56.2613L52.7275 58.4888L55.1312 61.7101C54.1562 62.3701 53.7175 62.7151 52.6694 63.4107L50.1513 60.0113L47.1025 62.2388L49.5063 65.4601C49.2925 65.5913 48.8537 65.8857 48.685 65.9888C48.0925 66.347 46.9487 66.7501 45.9306 66.8082C44.9725 66.8607 44.2394 66.6395 43.8813 66.3395L43.8231 66.2813L31.2831 52.3951L31.0487 52.1007L28 50.5782V38.4488C31.5812 38.2145 34.555 37.5038 36.6719 36.692C39.1769 35.732 40.9656 34.9407 41.1831 34.9332L43.7031 34.8751H43.705Z" fill="white"/>
</svg>
