<svg width="82" height="82" viewBox="0 0 82 82" fill="none" xmlns="http://www.w3.org/2000/svg">
<circle cx="41" cy="41" r="41" fill="#FF2442"/>
<path d="M40.1582 39.5002V40.5002V41.5862H36.8066V48.387H43.5645V51.1838H37.7988H36.8066V53.1799H37.7988H40.1582V54.2698V55.2698H42.1816V54.2698V53.1799H45.5645V46.3792H38.791V43.5979H44.5566H45.5645V41.5862H44.5566H42.1816V40.5002V39.5002H40.1582Z" fill="white"/>
<path d="M57.8652 34.9065L53.6738 39.1174L55.0801 40.5471L56.873 38.7463V47.301V48.2971H58.873V47.301V38.762L60.6543 40.5471L62.0762 39.1174L57.8652 34.9065Z" fill="white"/>
<path d="M24.1191 34.9065L19.9238 39.1174L21.334 40.5471L23.127 38.7463V47.301V48.2971H25.1113V47.301V38.7463L26.9043 40.5471L28.3145 39.1174L24.1191 34.9065Z" fill="white"/>
<path d="M41.1777 22.2578L36.9824 26.4844L38.3926 27.8984L40.1855 26.0977V35.0781C37.6068 35.2877 35.2464 36.2909 33.3613 37.8595V30.9258L35.1543 32.7304L36.5566 31.3047L32.3691 27.0898L28.1621 31.3047L29.5684 32.7304L31.3613 30.9376V39.4844V39.988C29.8184 42.0553 28.8926 44.6146 28.8926 47.3902C28.8926 54.2017 34.4017 59.7419 41.1777 59.7419C47.9537 59.7419 53.4629 54.2017 53.4629 47.3902C53.4629 44.6142 52.5374 42.0554 50.9941 39.988V39.4844V30.9258L52.7871 32.7304L54.1934 31.3047L50.002 27.0898L45.7988 31.3047L47.2051 32.7304L48.998 30.9337V37.8632C47.1122 36.2926 44.7506 35.2876 42.1699 35.0781V26.0977L43.9629 27.8984L45.373 26.4844L41.1777 22.2578ZM41.1777 37.0351C46.8732 37.0351 51.4785 41.6606 51.4785 47.3907C51.4785 53.1209 46.8732 57.7305 41.1777 57.7305C35.4822 57.7305 30.8926 53.1209 30.8926 47.3907C30.8926 41.6606 35.4822 37.0351 41.1777 37.0351Z" fill="white"/>
</svg>
