<svg width="49" height="48" viewBox="0 0 49 48" fill="none" xmlns="http://www.w3.org/2000/svg">
<path d="M23.6582 22.4999V23.4999V24.5858H20.3066V31.3866H27.0645V34.1835H21.2988H20.3066V36.1796H21.2988H23.6582V37.2694V38.2694H25.6816V37.2694V36.1796H29.0645V29.3788H22.291V26.5975H28.0566H29.0645V24.5858H28.0566H25.6816V23.4999V22.4999H23.6582Z" fill="#FF2442"/>
<path d="M41.3652 17.9061L37.1738 22.1171L38.5801 23.5468L40.373 21.746V30.3007V31.2968H42.373V30.3007V21.7616L44.1543 23.5468L45.5762 22.1171L41.3652 17.9061Z" fill="#FF2442"/>
<path d="M7.61914 17.9061L3.42383 22.1171L4.83398 23.5468L6.62695 21.746V30.3007V31.2968H8.61133V30.3007V21.746L10.4043 23.5468L11.8145 22.1171L7.61914 17.9061Z" fill="#FF2442"/>
<path d="M24.6777 5.25745L20.4824 9.484L21.8926 10.8981L23.6855 9.09736V18.0778C21.1068 18.2873 18.7464 19.2905 16.8613 20.8591V13.9254L18.6543 15.73L20.0566 14.3044L15.8691 10.0894L11.6621 14.3044L13.0684 15.73L14.8613 13.9372V22.4841V22.9876C13.3184 25.0549 12.3926 27.6143 12.3926 30.3899C12.3926 37.2013 17.9017 42.7415 24.6777 42.7415C31.4537 42.7415 36.9629 37.2013 36.9629 30.3899C36.9629 27.6138 36.0374 25.0551 34.4941 22.9876V22.4841V13.9254L36.2871 15.73L37.6934 14.3044L33.502 10.0894L29.2988 14.3044L30.7051 15.73L32.498 13.9333V20.8629C30.6122 19.2922 28.2506 18.2872 25.6699 18.0778V9.09736L27.4629 10.8981L28.873 9.484L24.6777 5.25745ZM24.6777 20.0347C30.3732 20.0347 34.9785 24.6603 34.9785 30.3903C34.9785 36.1205 30.3732 40.7302 24.6777 40.7302C18.9822 40.7302 14.3926 36.1205 14.3926 30.3903C14.3926 24.6603 18.9822 20.0347 24.6777 20.0347Z" fill="#FF2442"/>
</svg>
