<svg width="66" height="66" viewBox="0 0 66 66" fill="none" xmlns="http://www.w3.org/2000/svg">
<rect x="0.0644531" y="0.376923" width="65" height="65" fill="#FF2442"/>
<path d="M31.7227 31.3772V32.3772V33.4631H28.3711V40.2639H35.1289V43.0608H29.3633H28.3711V45.0569H29.3633H31.7227V46.1467V47.1467H33.7461V46.1467V45.0569H37.1289V38.2561H30.3555V35.4748H36.1211H37.1289V33.4631H36.1211H33.7461V32.3772V31.3772H31.7227Z" fill="white"/>
<path d="M49.4297 26.7834L45.2383 30.9944L46.6445 32.424L48.4375 30.6233V39.1779V40.174H50.4375V39.1779V30.6389L52.2188 32.424L53.6406 30.9944L49.4297 26.7834Z" fill="white"/>
<path d="M15.6836 26.7834L11.4883 30.9944L12.8984 32.424L14.6914 30.6233V39.1779V40.174H16.6758V39.1779V30.6233L18.4688 32.424L19.8789 30.9944L15.6836 26.7834Z" fill="white"/>
<path d="M32.7422 14.1347L28.5469 18.3613L29.957 19.7753L31.75 17.9747V26.9551C29.1713 27.1646 26.8109 28.1678 24.9258 29.7364V22.8027L26.7188 24.6073L28.1211 23.1816L23.9336 18.9667L19.7266 23.1816L21.1328 24.6073L22.9258 22.8145V31.3614V31.8649C21.3829 33.9322 20.457 36.4915 20.457 39.2672C20.457 46.0786 25.9662 51.6188 32.7422 51.6188C39.5182 51.6188 45.0273 46.0786 45.0273 39.2672C45.0273 36.4911 44.1019 33.9324 42.5586 31.8649V31.3614V22.8027L44.3516 24.6073L45.7578 23.1816L41.5664 18.9667L37.3633 23.1816L38.7695 24.6073L40.5625 22.8106V29.7402C38.6767 28.1695 36.315 27.1645 33.7344 26.9551V17.9747L35.5273 19.7753L36.9375 18.3613L32.7422 14.1347ZM32.7422 28.912C38.4377 28.912 43.043 33.5376 43.043 39.2676C43.043 44.9978 38.4377 49.6075 32.7422 49.6075C27.0467 49.6075 22.457 44.9978 22.457 39.2676C22.457 33.5376 27.0467 28.912 32.7422 28.912Z" fill="white"/>
</svg>
