<svg width="81" height="80" viewBox="0 0 81 80" fill="none" xmlns="http://www.w3.org/2000/svg">
<path d="M80.5 40.0001C80.5 50.6088 76.2857 60.7829 68.7843 68.2844C61.2828 75.7859 51.1087 80.0001 40.5 80.0001C29.8913 80.0001 19.7172 75.7859 12.2157 68.2844C4.71427 60.7829 0.5 50.6088 0.5 40.0001C0.5 29.3915 4.71427 19.2173 12.2157 11.7159C19.7172 4.2144 29.8913 0.00012207 40.5 0.00012207C51.1087 0.00012207 61.2828 4.2144 68.7843 11.7159C76.2857 19.2173 80.5 29.3915 80.5 40.0001ZM34.45 25.4651C34.0762 25.199 33.6363 25.0408 33.1786 25.0081C32.7209 24.9753 32.263 25.0691 31.855 25.2793C31.4471 25.4894 31.1049 25.8078 30.8659 26.1995C30.6269 26.5913 30.5003 27.0412 30.5 27.5001V52.5001C30.5003 52.959 30.6269 53.409 30.8659 53.8007C31.1049 54.1924 31.4471 54.5108 31.855 54.721C32.263 54.9311 32.7209 55.025 33.1786 54.9922C33.6363 54.9594 34.0762 54.8013 34.45 54.5351L51.95 42.0351C52.2741 41.8039 52.5382 41.4985 52.7205 41.1446C52.9028 40.7906 52.9978 40.3983 52.9978 40.0001C52.9978 39.602 52.9028 39.2096 52.7205 38.8557C52.5382 38.5017 52.2741 38.1964 51.95 37.9651L34.45 25.4651Z" fill="white"/>
</svg>
