<svg width="82" height="82" viewBox="0 0 82 82" fill="none" xmlns="http://www.w3.org/2000/svg">
<circle cx="41" cy="41" r="41" fill="#FF2442"/>
<path d="M45.2451 50.283H36.143C37.1408 51.6595 37.7293 53.3529 37.7293 55.1835C37.7293 57.4915 36.7933 59.5818 35.2807 61.0944C33.7681 62.607 31.6779 63.543 29.3693 63.543C24.7528 63.543 21.0099 59.8001 21.0099 55.1835C21.0099 53.3529 21.5984 51.66 22.5967 50.283H18.7625C17.2165 50.283 17.2165 47.9313 18.7625 47.9313H20.6181V24.026C20.6181 23.3769 21.1442 22.8502 21.7934 22.8502H31.5877V22.0689C31.5877 19.537 33.6548 17.47 36.1873 17.47C38.7192 17.47 40.7862 19.537 40.7862 22.0689V22.8502H50.5806C51.2303 22.8502 51.7564 23.3769 51.7564 24.026V41.2613C52.0455 41.2279 52.3392 41.2103 52.6368 41.2103C56.8044 41.2103 60.1833 44.5892 60.1833 48.7568C60.1833 50.3708 59.6759 51.867 58.8124 53.0944C62.18 54.5446 64.3967 57.8674 64.3967 61.5485V63.3542C64.3967 64.0033 63.8706 64.53 63.2215 64.53H42.0527C41.4036 64.53 40.8769 64.0033 40.8769 63.3542V61.5485C40.8769 57.8674 43.0936 54.5446 46.4612 53.0944C45.8773 52.2644 45.4566 51.3119 45.2451 50.283ZM25.4818 56.0969C24.6133 54.8241 26.5516 53.5014 27.4202 54.7742L28.1884 55.9013L31.3558 51.7496C32.2913 50.5245 34.1554 51.9486 33.2205 53.1732L29.0881 58.5897C28.6181 59.2439 27.6283 59.2445 27.1656 58.5664L25.4818 56.0969ZM29.3693 49.1752C26.0771 49.1752 23.3615 51.8381 23.3615 55.1835C23.3615 58.5018 26.051 61.1919 29.3693 61.1919C32.6881 61.1919 35.3777 58.5018 35.3777 55.1835C35.3777 51.8653 32.6876 49.1752 29.3693 49.1752ZM33.5312 47.9313H45.1352C45.4192 45.3251 47.0452 43.0557 49.4053 41.936V25.2012C40.5929 25.2012 31.781 25.2012 22.9692 25.2012V47.9313H25.208C26.4337 47.2266 27.8545 46.8235 29.3693 46.8235C30.8847 46.8235 32.306 47.2266 33.5312 47.9313ZM33.9394 22.8502H38.4351V22.0689C38.4351 20.8353 37.4209 19.821 36.1873 19.821C34.953 19.821 33.9394 20.8353 33.9394 22.0689V22.8502ZM29.0309 43.4548C28.312 44.82 26.2364 43.7275 26.9553 42.3623L30.8836 34.9536C31.3099 34.1446 32.4466 34.1219 32.9177 34.8805L35.7354 39.4046L43.4582 29.5037C44.4055 28.291 46.2515 29.7327 45.3041 30.9454L36.5977 42.1072C36.1283 42.8023 35.0817 42.7966 34.6293 42.0692L32.0027 37.8507L29.0309 43.4548ZM56.9744 54.9324C55.7476 55.7958 54.2515 56.3032 52.6368 56.3032C51.0222 56.3032 49.5261 55.7958 48.2992 54.9324C45.3245 55.7386 43.228 58.461 43.228 61.5485V62.1784H62.0457V61.5485C62.0457 58.461 59.9491 55.7386 56.9744 54.9324ZM52.6368 53.9516C55.5061 53.9516 57.8316 51.626 57.8316 48.7568C57.8316 45.8875 55.5061 43.562 52.6368 43.562C49.7676 43.562 47.442 45.8875 47.442 48.7568C47.442 51.6255 49.7681 53.9516 52.6368 53.9516Z" fill="white"/>
</svg>
