<svg width="49" height="48" viewBox="0 0 49 48" fill="none" xmlns="http://www.w3.org/2000/svg">
<g clip-path="url(#clip0_108_48)">
<path d="M28.7452 33.2826H19.6431C20.6409 34.6591 21.2293 36.3525 21.2293 38.1832C21.2293 40.4911 20.2933 42.5814 18.7808 44.094C17.2682 45.6066 15.1779 46.5426 12.8693 46.5426C8.2528 46.5426 4.5099 42.7997 4.5099 38.1832C4.5099 36.3525 5.09838 34.6597 6.09675 33.2826H2.26258C0.716551 33.2826 0.716551 30.931 2.26258 30.931H4.11815V7.02562C4.11815 6.37649 4.64427 5.8498 5.29341 5.8498H15.0878V5.06857C15.0878 2.53664 17.1548 0.469604 19.6873 0.469604C22.2192 0.469604 24.2862 2.53664 24.2862 5.06857V5.8498H34.0806C34.7303 5.8498 35.2564 6.37649 35.2564 7.02562V24.261C35.5455 24.2275 35.8392 24.2099 36.1369 24.2099C40.3044 24.2099 43.6833 27.5889 43.6833 31.7564C43.6833 33.3705 43.1759 34.8666 42.3125 36.094C45.6801 37.5442 47.8968 40.867 47.8968 44.5481V46.3538C47.8968 47.0029 47.3706 47.5296 46.7215 47.5296H25.5528C24.9036 47.5296 24.377 47.0029 24.377 46.3538V44.5481C24.377 40.867 26.5937 37.5442 29.9613 36.094C29.3773 35.264 28.9566 34.3116 28.7452 33.2826ZM8.98188 39.0965C8.11333 37.8237 10.0517 36.5011 10.9202 37.7738L11.6884 38.9009L14.8559 34.7492C15.7913 33.5241 17.6554 34.9482 16.7205 36.1728L12.5881 41.5893C12.1182 42.2435 11.1283 42.2441 10.6657 41.5661L8.98188 39.0965ZM12.8693 32.1748C9.57716 32.1748 6.86154 34.8377 6.86154 38.1832C6.86154 41.5014 9.55108 44.1915 12.8693 44.1915C16.1882 44.1915 18.8777 41.5014 18.8777 38.1832C18.8777 34.8649 16.1876 32.1748 12.8693 32.1748ZM17.0312 30.931H28.6352C28.9192 28.3248 30.5452 26.0553 32.9053 24.9356V8.20088C24.0929 8.20088 15.2811 8.20088 6.46923 8.20088V30.931H8.70805C9.93376 30.2263 11.3545 29.8232 12.8693 29.8232C14.3848 29.8232 15.8061 30.2263 17.0312 30.931ZM17.4394 5.8498H21.9352V5.06857C21.9352 3.83492 20.9209 2.82068 19.6873 2.82068C18.4531 2.82068 17.4394 3.83492 17.4394 5.06857V5.8498ZM12.5309 26.4544C11.812 27.8196 9.73647 26.7271 10.4553 25.362L14.3836 17.9533C14.81 17.1443 15.9467 17.1216 16.4178 17.8801L19.2354 22.4043L26.9582 12.5033C27.9056 11.2907 29.7515 12.7324 28.8041 13.945L20.0977 25.1068C19.6283 25.8019 18.5818 25.7962 18.1293 25.0689L15.5027 20.8503L12.5309 26.4544ZM40.4745 37.932C39.2476 38.7955 37.7515 39.3029 36.1369 39.3029C34.5222 39.3029 33.0261 38.7955 31.7993 37.932C28.8246 38.7382 26.728 41.4606 26.728 44.5481V45.178H45.5457V44.5481C45.5457 41.4606 43.4492 38.7382 40.4745 37.932ZM36.1369 36.9512C39.0061 36.9512 41.3317 34.6257 41.3317 31.7564C41.3317 28.8872 39.0061 26.5616 36.1369 26.5616C33.2676 26.5616 30.942 28.8872 30.942 31.7564C30.942 34.6251 33.2682 36.9512 36.1369 36.9512Z" fill="#FF2442"/>
</g>
<defs>
<clipPath id="clip0_108_48">
<rect width="48" height="48" fill="white" transform="translate(0.5 -0.000366211)"/>
</clipPath>
</defs>
</svg>
