<svg width="22" height="23" viewBox="0 0 22 23" fill="none" xmlns="http://www.w3.org/2000/svg">
<path d="M11 3.71646C8.34969 3.71646 6.1875 5.87865 6.1875 8.52896C6.1875 10.1858 7.03312 11.6571 8.31462 12.5254C5.86231 13.5773 4.125 16.011 4.125 18.8415H5.5C5.5 15.7958 7.95438 13.3415 11 13.3415C14.0456 13.3415 16.5 15.7958 16.5 18.8415H17.875C17.875 16.011 16.1377 13.578 13.6854 12.5247C14.3394 12.0832 14.8753 11.4881 15.2461 10.7915C15.617 10.0949 15.8114 9.31809 15.8125 8.52896C15.8125 5.87865 13.6503 3.71646 11 3.71646ZM11 5.09146C12.9064 5.09146 14.4375 6.62252 14.4375 8.52896C14.4375 10.4354 12.9064 11.9665 11 11.9665C9.09356 11.9665 7.5625 10.4354 7.5625 8.52896C7.5625 6.62252 9.09356 5.09146 11 5.09146Z" fill="#FF2442"/>
</svg>
